<?xml version="1.0" encoding="us-ascii" standalone="no"?><svg xmlns="http://www.w3.org/2000/svg" xmlns:xlink="http://www.w3.org/1999/xlink" contentStyleType="text/css" height="1789px" preserveAspectRatio="none" style="width:1112px;height:1789px;background:#FFFFFF;" version="1.1" viewBox="0 0 1112 1789" width="1112px" zoomAndPan="magnify"><defs/><g><rect fill="#8DCCF0" height="528.3906" style="stroke:#000000;stroke-width:1.0;" width="10" x="42" y="91.2969"/><rect fill="#8DCCF0" height="184.7969" style="stroke:#000000;stroke-width:1.0;" width="10" x="215" y="136.5625"/><rect fill="#8DCCF0" height="100.3984" style="stroke:#000000;stroke-width:1.0;" width="10" x="215" y="519.2891"/><rect fill="#8DCCF0" height="29.1328" style="stroke:#000000;stroke-width:1.0;" width="10" x="215" y="704.0859"/><rect fill="#8DCCF0" height="94.5313" style="stroke:#000000;stroke-width:1.0;" width="10" x="215" y="793.4844"/><rect fill="#8DCCF0" height="79.3984" style="stroke:#000000;stroke-width:1.0;" width="10" x="215" y="972.4141"/><rect fill="#8DCCF0" height="29.1328" style="stroke:#000000;stroke-width:1.0;" width="10" x="215" y="1112.0781"/><rect fill="#8DCCF0" height="29.1328" style="stroke:#000000;stroke-width:1.0;" width="10" x="215" y="1201.4766"/><rect fill="#8DCCF0" height="29.1328" style="stroke:#000000;stroke-width:1.0;" width="10" x="215" y="1322.0078"/><rect fill="#8DCCF0" height="29.1328" style="stroke:#000000;stroke-width:1.0;" width="10" x="215" y="1411.4063"/><rect fill="#8DCCF0" height="64.2656" style="stroke:#000000;stroke-width:1.0;" width="10" x="215" y="1507.8047"/><rect fill="#8DCCF0" height="44.2656" style="stroke:#000000;stroke-width:1.0;" width="10" x="215" y="1632.3359"/><rect fill="#8DCCF0" height="29.1328" style="stroke:#000000;stroke-width:1.0;" width="10" x="661" y="321.3594"/><rect fill="#8DCCF0" height="29.1328" style="stroke:#000000;stroke-width:1.0;" width="10" x="661" y="436.8906"/><rect fill="#8DCCF0" height="71.2656" style="stroke:#000000;stroke-width:1.0;" width="10" x="833" y="189.8281"/><rect fill="#8DCCF0" height="117.5313" style="stroke:#000000;stroke-width:1.0;" width="10" x="833" y="466.0234"/><rect fill="#8DCCF0" height="29.1328" style="stroke:#000000;stroke-width:1.0;" width="10" x="833" y="704.0859"/><rect fill="#8DCCF0" height="94.5313" style="stroke:#000000;stroke-width:1.0;" width="10" x="833" y="793.4844"/><rect fill="#8DCCF0" height="79.3984" style="stroke:#000000;stroke-width:1.0;" width="10" x="833" y="972.4141"/><rect fill="#8DCCF0" height="29.1328" style="stroke:#000000;stroke-width:1.0;" width="10" x="833" y="1112.0781"/><rect fill="#8DCCF0" height="29.1328" style="stroke:#000000;stroke-width:1.0;" width="10" x="833" y="1201.4766"/><rect fill="#8DCCF0" height="29.1328" style="stroke:#000000;stroke-width:1.0;" width="10" x="833" y="1322.0078"/><rect fill="#8DCCF0" height="29.1328" style="stroke:#000000;stroke-width:1.0;" width="10" x="833" y="1411.4063"/><rect fill="#8DCCF0" height="64.2656" style="stroke:#000000;stroke-width:1.0;" width="10" x="833" y="1507.8047"/><rect fill="#8DCCF0" height="44.2656" style="stroke:#000000;stroke-width:1.0;" width="10" x="833" y="1632.3359"/><rect fill="none" height="529.3906" style="stroke:#000000;stroke-width:1.5;" width="1096" x="10" y="98.2969"/><rect fill="none" height="117.5313" style="stroke:#000000;stroke-width:1.5;" width="921" x="175" y="151.5625"/><rect fill="none" height="110.5313" style="stroke:#000000;stroke-width:1.5;" width="705" x="20" y="283.0938"/><rect fill="none" height="110.5313" style="stroke:#000000;stroke-width:1.5;" width="722" x="175" y="481.0234"/><rect fill="none" height="1049.9141" style="stroke:#000000;stroke-width:1.5;" width="762" x="155" y="641.6875"/><rect fill="none" height="75.3984" style="stroke:#000000;stroke-width:1.5;" width="722" x="175" y="665.8203"/><rect fill="none" height="140.7969" style="stroke:#000000;stroke-width:1.5;" width="722" x="175" y="755.2188"/><rect fill="none" height="335.5938" style="stroke:#000000;stroke-width:1.5;" width="742" x="165" y="910.0156"/><rect fill="none" height="125.6641" style="stroke:#000000;stroke-width:1.5;" width="722" x="175" y="934.1484"/><rect fill="none" height="75.3984" style="stroke:#000000;stroke-width:1.5;" width="722" x="175" y="1073.8125"/><rect fill="none" height="75.3984" style="stroke:#000000;stroke-width:1.5;" width="722" x="175" y="1163.2109"/><rect fill="none" height="195.9297" style="stroke:#000000;stroke-width:1.5;" width="742" x="165" y="1259.6094"/><rect fill="none" height="75.3984" style="stroke:#000000;stroke-width:1.5;" width="722" x="175" y="1283.7422"/><rect fill="none" height="75.3984" style="stroke:#000000;stroke-width:1.5;" width="722" x="175" y="1373.1406"/><rect fill="none" height="110.5313" style="stroke:#000000;stroke-width:1.5;" width="722" x="175" y="1469.5391"/><rect fill="none" height="90.5313" style="stroke:#000000;stroke-width:1.5;" width="722" x="175" y="1594.0703"/><line style="stroke:#000000;stroke-width:0.5;stroke-dasharray:5.0,5.0;" x1="47" x2="47" y1="81.2969" y2="1708.6016"/><line style="stroke:#000000;stroke-width:0.5;stroke-dasharray:5.0,5.0;" x1="220" x2="220" y1="81.2969" y2="1708.6016"/><line style="stroke:#000000;stroke-width:0.5;stroke-dasharray:5.0,5.0;" x1="666" x2="666" y1="81.2969" y2="1708.6016"/><line style="stroke:#000000;stroke-width:0.5;stroke-dasharray:5.0,5.0;" x1="838" x2="838" y1="81.2969" y2="1708.6016"/><text fill="#000000" font-family="sans-serif" font-size="14" lengthAdjust="spacing" textLength="28" x="30" y="77.9951">&#29992;&#25143;</text><ellipse cx="47" cy="13.5" fill="#8DCCF0" rx="8" ry="8" style="stroke:#181818;stroke-width:0.5;"/><path d="M47,21.5 L47,48.5 M34,29.5 L60,29.5 M47,48.5 L34,63.5 M47,48.5 L60,63.5 " fill="none" style="stroke:#181818;stroke-width:0.5;"/><text fill="#000000" font-family="sans-serif" font-size="14" lengthAdjust="spacing" textLength="28" x="30" y="1720.5967">&#29992;&#25143;</text><ellipse cx="47" cy="1732.3984" fill="#8DCCF0" rx="8" ry="8" style="stroke:#181818;stroke-width:0.5;"/><path d="M47,1740.3984 L47,1767.3984 M34,1748.3984 L60,1748.3984 M47,1767.3984 L34,1782.3984 M47,1767.3984 L60,1782.3984 " fill="none" style="stroke:#181818;stroke-width:0.5;"/><rect fill="#8DCCF0" height="30.2969" rx="2.5" ry="2.5" style="stroke:#000000;stroke-width:0.5;" width="70" x="185" y="50"/><text fill="#000000" font-family="sans-serif" font-size="14" lengthAdjust="spacing" textLength="56" x="192" y="69.9951">&#21830;&#25143;&#31995;&#32479;</text><rect fill="#8DCCF0" height="30.2969" rx="2.5" ry="2.5" style="stroke:#000000;stroke-width:0.5;" width="70" x="185" y="1707.6016"/><text fill="#000000" font-family="sans-serif" font-size="14" lengthAdjust="spacing" textLength="56" x="192" y="1727.5967">&#21830;&#25143;&#31995;&#32479;</text><rect fill="#8DCCF0" height="30.2969" rx="2.5" ry="2.5" style="stroke:#000000;stroke-width:0.5;" width="98" x="617" y="50"/><text fill="#000000" font-family="sans-serif" font-size="14" lengthAdjust="spacing" textLength="84" x="624" y="69.9951">&#25903;&#20184;&#23453;&#23458;&#25143;&#31471;</text><rect fill="#8DCCF0" height="30.2969" rx="2.5" ry="2.5" style="stroke:#000000;stroke-width:0.5;" width="98" x="617" y="1707.6016"/><text fill="#000000" font-family="sans-serif" font-size="14" lengthAdjust="spacing" textLength="84" x="624" y="1727.5967">&#25903;&#20184;&#23453;&#23458;&#25143;&#31471;</text><rect fill="#8DCCF0" height="30.2969" rx="2.5" ry="2.5" style="stroke:#000000;stroke-width:0.5;" width="98" x="789" y="50"/><text fill="#000000" font-family="sans-serif" font-size="14" lengthAdjust="spacing" textLength="84" x="796" y="69.9951">&#25903;&#20184;&#23453;&#26381;&#21153;&#31471;</text><rect fill="#8DCCF0" height="30.2969" rx="2.5" ry="2.5" style="stroke:#000000;stroke-width:0.5;" width="98" x="789" y="1707.6016"/><text fill="#000000" font-family="sans-serif" font-size="14" lengthAdjust="spacing" textLength="84" x="796" y="1727.5967">&#25903;&#20184;&#23453;&#26381;&#21153;&#31471;</text><rect fill="#8DCCF0" height="528.3906" style="stroke:#000000;stroke-width:1.0;" width="10" x="42" y="91.2969"/><rect fill="#8DCCF0" height="184.7969" style="stroke:#000000;stroke-width:1.0;" width="10" x="215" y="136.5625"/><rect fill="#8DCCF0" height="100.3984" style="stroke:#000000;stroke-width:1.0;" width="10" x="215" y="519.2891"/><rect fill="#8DCCF0" height="29.1328" style="stroke:#000000;stroke-width:1.0;" width="10" x="215" y="704.0859"/><rect fill="#8DCCF0" height="94.5313" style="stroke:#000000;stroke-width:1.0;" width="10" x="215" y="793.4844"/><rect fill="#8DCCF0" height="79.3984" style="stroke:#000000;stroke-width:1.0;" width="10" x="215" y="972.4141"/><rect fill="#8DCCF0" height="29.1328" style="stroke:#000000;stroke-width:1.0;" width="10" x="215" y="1112.0781"/><rect fill="#8DCCF0" height="29.1328" style="stroke:#000000;stroke-width:1.0;" width="10" x="215" y="1201.4766"/><rect fill="#8DCCF0" height="29.1328" style="stroke:#000000;stroke-width:1.0;" width="10" x="215" y="1322.0078"/><rect fill="#8DCCF0" height="29.1328" style="stroke:#000000;stroke-width:1.0;" width="10" x="215" y="1411.4063"/><rect fill="#8DCCF0" height="64.2656" style="stroke:#000000;stroke-width:1.0;" width="10" x="215" y="1507.8047"/><rect fill="#8DCCF0" height="44.2656" style="stroke:#000000;stroke-width:1.0;" width="10" x="215" y="1632.3359"/><rect fill="#8DCCF0" height="29.1328" style="stroke:#000000;stroke-width:1.0;" width="10" x="661" y="321.3594"/><rect fill="#8DCCF0" height="29.1328" style="stroke:#000000;stroke-width:1.0;" width="10" x="661" y="436.8906"/><rect fill="#8DCCF0" height="71.2656" style="stroke:#000000;stroke-width:1.0;" width="10" x="833" y="189.8281"/><rect fill="#8DCCF0" height="117.5313" style="stroke:#000000;stroke-width:1.0;" width="10" x="833" y="466.0234"/><rect fill="#8DCCF0" height="29.1328" style="stroke:#000000;stroke-width:1.0;" width="10" x="833" y="704.0859"/><rect fill="#8DCCF0" height="94.5313" style="stroke:#000000;stroke-width:1.0;" width="10" x="833" y="793.4844"/><rect fill="#8DCCF0" height="79.3984" style="stroke:#000000;stroke-width:1.0;" width="10" x="833" y="972.4141"/><rect fill="#8DCCF0" height="29.1328" style="stroke:#000000;stroke-width:1.0;" width="10" x="833" y="1112.0781"/><rect fill="#8DCCF0" height="29.1328" style="stroke:#000000;stroke-width:1.0;" width="10" x="833" y="1201.4766"/><rect fill="#8DCCF0" height="29.1328" style="stroke:#000000;stroke-width:1.0;" width="10" x="833" y="1322.0078"/><rect fill="#8DCCF0" height="29.1328" style="stroke:#000000;stroke-width:1.0;" width="10" x="833" y="1411.4063"/><rect fill="#8DCCF0" height="64.2656" style="stroke:#000000;stroke-width:1.0;" width="10" x="833" y="1507.8047"/><rect fill="#8DCCF0" height="44.2656" style="stroke:#000000;stroke-width:1.0;" width="10" x="833" y="1632.3359"/><path d="M10,98.2969 L167,98.2969 L167,105.4297 L157,115.4297 L10,115.4297 L10,98.2969 " fill="#FFFFFF" style="stroke:#000000;stroke-width:1.5;"/><rect fill="none" height="529.3906" style="stroke:#000000;stroke-width:1.5;" width="1096" x="10" y="98.2969"/><text fill="#000000" font-family="sans-serif" font-size="13" font-weight="bold" lengthAdjust="spacing" textLength="112" x="25" y="111.3638">&#21019;&#24314;&#20813;&#25276;&#35746;&#21333;&#27969;&#31243;</text><polygon fill="#181818" points="203,132.5625,213,136.5625,203,140.5625,207,136.5625" style="stroke:#181818;stroke-width:1.0;"/><line style="stroke:#181818;stroke-width:1.0;" x1="52" x2="209" y1="136.5625" y2="136.5625"/><text fill="#000000" font-family="sans-serif" font-size="13" font-weight="bold" lengthAdjust="spacing" textLength="9" x="62" y="131.4966">1</text><text fill="#000000" font-family="sans-serif" font-size="13" lengthAdjust="spacing" textLength="130" x="75" y="131.4966">&#29992;&#25143;&#22312;&#21830;&#23478;&#20391;&#25805;&#20316;&#19979;&#21333;</text><path d="M175,151.5625 L304,151.5625 L304,158.6953 L294,168.6953 L175,168.6953 L175,151.5625 " fill="#FFFFFF" style="stroke:#000000;stroke-width:1.5;"/><rect fill="none" height="117.5313" style="stroke:#000000;stroke-width:1.5;" width="921" x="175" y="151.5625"/><text fill="#000000" font-family="sans-serif" font-size="13" font-weight="bold" lengthAdjust="spacing" textLength="84" x="190" y="164.6294">&#21019;&#24314;&#20813;&#25276;&#35746;&#21333;</text><polygon fill="#181818" points="821,185.8281,831,189.8281,821,193.8281,825,189.8281" style="stroke:#181818;stroke-width:1.0;"/><line style="stroke:#181818;stroke-width:1.0;" x1="225" x2="827" y1="189.8281" y2="189.8281"/><text fill="#000000" font-family="sans-serif" font-size="13" font-weight="bold" lengthAdjust="spacing" textLength="9" x="320.5" y="184.7622">2</text><text fill="#000000" font-family="sans-serif" font-size="13" lengthAdjust="spacing" textLength="404" x="333.5" y="184.7622">&#21830;&#23478;&#35843;&#29992;alipay.fund.auth.order.app.freeze(&#32447;&#19978;&#36164;&#37329;&#25480;&#26435;&#20923;&#32467;&#25509;&#21475;)</text><line style="stroke:#181818;stroke-width:1.0;" x1="843" x2="885" y1="218.9609" y2="218.9609"/><line style="stroke:#181818;stroke-width:1.0;" x1="885" x2="885" y1="218.9609" y2="231.9609"/><line style="stroke:#181818;stroke-width:1.0;" x1="844" x2="885" y1="231.9609" y2="231.9609"/><polygon fill="#181818" points="854,227.9609,844,231.9609,854,235.9609,850,231.9609" style="stroke:#181818;stroke-width:1.0;"/><text fill="#000000" font-family="sans-serif" font-size="13" font-weight="bold" lengthAdjust="spacing" textLength="9" x="850" y="213.895">3</text><text fill="#000000" font-family="sans-serif" font-size="13" lengthAdjust="spacing" textLength="221" x="863" y="213.895">&#21028;&#26029;&#24403;&#21069;&#29992;&#25143;&#26159;&#21542;&#28385;&#36275;&#20351;&#29992;&#20813;&#25276;&#30340;&#26465;&#20214;</text><polygon fill="#181818" points="236,257.0938,226,261.0938,236,265.0938,232,261.0938" style="stroke:#181818;stroke-width:1.0;"/><line style="stroke:#181818;stroke-width:1.0;" x1="230" x2="837" y1="261.0938" y2="261.0938"/><text fill="#000000" font-family="sans-serif" font-size="13" font-weight="bold" lengthAdjust="spacing" textLength="9" x="407.5" y="256.0278">4</text><text fill="#000000" font-family="sans-serif" font-size="13" lengthAdjust="spacing" textLength="235" x="420.5" y="256.0278">&#21019;&#24314;&#35746;&#21333;&#25104;&#21151;&#65292;&#36820;&#22238;&#21152;&#31614;&#23383;&#31526;&#20018;orderStr</text><path d="M20,283.0938 L163,283.0938 L163,290.2266 L153,300.2266 L20,300.2266 L20,283.0938 " fill="#FFFFFF" style="stroke:#000000;stroke-width:1.5;"/><rect fill="none" height="110.5313" style="stroke:#000000;stroke-width:1.5;" width="705" x="20" y="283.0938"/><text fill="#000000" font-family="sans-serif" font-size="13" font-weight="bold" lengthAdjust="spacing" textLength="98" x="35" y="296.1606">&#36339;&#36716;&#30830;&#35748;&#35746;&#21333;&#39029;</text><polygon fill="#181818" points="649,317.3594,659,321.3594,649,325.3594,653,321.3594" style="stroke:#181818;stroke-width:1.0;"/><line style="stroke:#181818;stroke-width:1.0;" x1="220" x2="655" y1="321.3594" y2="321.3594"/><text fill="#000000" font-family="sans-serif" font-size="13" font-weight="bold" lengthAdjust="spacing" textLength="9" x="290.5" y="316.2935">5</text><text fill="#000000" font-family="sans-serif" font-size="13" lengthAdjust="spacing" textLength="287" x="303.5" y="316.2935">&#26681;&#25454;&#29992;&#25143;&#19981;&#21516;&#30340;&#20351;&#29992;&#22330;&#26223;&#65292;&#20351;&#29992;orderStr&#21457;&#36215;&#35831;&#27714;</text><polygon fill="#181818" points="63,346.4922,53,350.4922,63,354.4922,59,350.4922" style="stroke:#181818;stroke-width:1.0;"/><line style="stroke:#181818;stroke-width:1.0;" x1="57" x2="665" y1="350.4922" y2="350.4922"/><text fill="#000000" font-family="sans-serif" font-size="13" font-weight="bold" lengthAdjust="spacing" textLength="9" x="66.5" y="345.4263">6</text><text fill="#000000" font-family="sans-serif" font-size="13" lengthAdjust="spacing" textLength="572" x="79.5" y="345.4263">&#21521;&#29992;&#25143;&#23637;&#31034;&#33437;&#40635;&#20813;&#25276;&#35746;&#21333;&#21463;&#29702;&#39029;&#38754;&#65292;&#22914;&#26524;&#29992;&#25143;&#28385;&#36275;&#26465;&#20214;&#65292;&#23637;&#31034;&#27491;&#24120;&#39029;&#38754;&#65292;&#29992;&#25143;&#21487;&#20197;&#28857;&#20987;&#25353;&#38062;&#30830;&#35748;&#19979;&#21333;</text><path d="M57,363.4922 L57,388.4922 L559,388.4922 L559,373.4922 L549,363.4922 L57,363.4922 " fill="#FEFFDD" style="stroke:#181818;stroke-width:0.5;"/><path d="M549,363.4922 L549,373.4922 L559,373.4922 L549,363.4922 " fill="#FEFFDD" style="stroke:#181818;stroke-width:0.5;"/><text fill="#000000" font-family="sans-serif" font-size="13" lengthAdjust="spacing" textLength="481" x="63" y="380.5591">&#23637;&#31034;&#38169;&#35823;&#25552;&#31034;&#39029;&#26102;&#65292;&#34920;&#31034;&#24403;&#21069;&#29992;&#25143;&#19981;&#28385;&#36275;&#20351;&#29992;&#26465;&#20214;&#65292;&#35831;&#21442;&#32771;&#25509;&#20837;&#25351;&#21335;&#25110;&#24120;&#35265;&#38382;&#39064;&#25490;&#26597;</text><polygon fill="#181818" points="649,432.8906,659,436.8906,649,440.8906,653,436.8906" style="stroke:#181818;stroke-width:1.0;"/><line style="stroke:#181818;stroke-width:1.0;" x1="52" x2="655" y1="436.8906" y2="436.8906"/><text fill="#000000" font-family="sans-serif" font-size="13" font-weight="bold" lengthAdjust="spacing" textLength="9" x="181" y="424.2583">7</text><text fill="#000000" font-family="sans-serif" font-size="13" lengthAdjust="spacing" textLength="234" x="246" y="416.6919">&#22312;&#23637;&#31034;&#30340;&#25903;&#20184;&#23453;&#33437;&#40635;&#20813;&#25276;&#35746;&#21333;&#21463;&#29702;&#39029;&#38754;&#19978;</text><text fill="#000000" font-family="sans-serif" font-size="13" lengthAdjust="spacing" textLength="338" x="194" y="431.8247">&#29992;&#25143;&#38405;&#35835;&#21327;&#35758;&#65292;&#28857;&#20987;&#30830;&#35748;&#19979;&#21333;&#25353;&#38062;&#65292;&#24182;&#36755;&#20837;&#23494;&#30721;&#12289;&#23436;&#25104;&#26657;&#39564;</text><polygon fill="#181818" points="821,462.0234,831,466.0234,821,470.0234,825,466.0234" style="stroke:#181818;stroke-width:1.0;"/><line style="stroke:#181818;stroke-width:1.0;" x1="666" x2="827" y1="466.0234" y2="466.0234"/><text fill="#000000" font-family="sans-serif" font-size="13" font-weight="bold" lengthAdjust="spacing" textLength="9" x="678" y="460.9575">8</text><text fill="#000000" font-family="sans-serif" font-size="13" lengthAdjust="spacing" textLength="130" x="691" y="460.9575">&#30830;&#35748;&#24403;&#21069;&#29992;&#25143;&#35746;&#21333;&#35831;&#27714;</text><path d="M175,481.0234 L360,481.0234 L360,488.1563 L350,498.1563 L175,498.1563 L175,481.0234 " fill="#FFFFFF" style="stroke:#000000;stroke-width:1.5;"/><rect fill="none" height="110.5313" style="stroke:#000000;stroke-width:1.5;" width="722" x="175" y="481.0234"/><text fill="#000000" font-family="sans-serif" font-size="13" font-weight="bold" lengthAdjust="spacing" textLength="140" x="190" y="494.0903">&#21019;&#24314;&#20813;&#25276;&#35746;&#21333;&#32467;&#26524;&#36890;&#30693;</text><polygon fill="#181818" points="236,515.2891,226,519.2891,236,523.2891,232,519.2891" style="stroke:#181818;stroke-width:1.0;"/><line style="stroke:#181818;stroke-width:1.0;" x1="230" x2="832" y1="519.2891" y2="519.2891"/><text fill="#000000" font-family="sans-serif" font-size="13" font-weight="bold" lengthAdjust="spacing" textLength="9" x="375.5" y="514.2231">9</text><text fill="#000000" font-family="sans-serif" font-size="13" lengthAdjust="spacing" textLength="294" x="388.5" y="514.2231">&#36890;&#36807;POST&#35831;&#27714;&#65292;&#21578;&#30693;&#21830;&#25143;&#65292;&#24403;&#21069;&#29992;&#25143;&#27491;&#24120;&#30830;&#35748;&#35746;&#21333;</text><path d="M230,532.2891 L230,557.2891 L668,557.2891 L668,542.2891 L658,532.2891 L230,532.2891 " fill="#FEFFDD" style="stroke:#181818;stroke-width:0.5;"/><path d="M658,532.2891 L658,542.2891 L668,542.2891 L658,532.2891 " fill="#FEFFDD" style="stroke:#181818;stroke-width:0.5;"/><text fill="#000000" font-family="sans-serif" font-size="13" lengthAdjust="spacing" textLength="417" x="236" y="549.356">&#28040;&#24687;&#36890;&#30693;&#22320;&#22336;&#20026;&#65292;&#22312;&#31532;2&#27493;&#20013;&#21830;&#23478;&#12304;&#21019;&#24314;&#20813;&#25276;&#35746;&#21333;&#12305;&#22635;&#20889;&#30340;notify_url&#21442;&#25968;</text><polygon fill="#181818" points="826,579.5547,836,583.5547,826,587.5547,830,583.5547" style="stroke:#181818;stroke-width:1.0;"/><line style="stroke:#181818;stroke-width:1.0;" x1="225" x2="832" y1="583.5547" y2="583.5547"/><text fill="#000000" font-family="sans-serif" font-size="13" font-weight="bold" lengthAdjust="spacing" textLength="18" x="384.5" y="578.4888">10</text><text fill="#000000" font-family="sans-serif" font-size="13" lengthAdjust="spacing" textLength="272" x="406.5" y="578.4888">&#21830;&#23478;&#35831;&#20027;&#21160;&#36755;&#20986;&#36820;&#22238;success&#65292;&#21542;&#21017;&#23558;&#19968;&#30452;&#37325;&#35797;</text><polygon fill="#181818" points="58,615.6875,48,619.6875,58,623.6875,54,619.6875" style="stroke:#181818;stroke-width:1.0;"/><line style="stroke:#181818;stroke-width:1.0;" x1="52" x2="219" y1="619.6875" y2="619.6875"/><text fill="#000000" font-family="sans-serif" font-size="13" font-weight="bold" lengthAdjust="spacing" textLength="18" x="64" y="614.6216">11</text><text fill="#000000" font-family="sans-serif" font-size="13" lengthAdjust="spacing" textLength="117" x="86" y="614.6216">&#21830;&#23478;&#21521;&#29992;&#25143;&#25552;&#20379;&#26381;&#21153;</text><path d="M155,641.6875 L326,641.6875 L326,648.8203 L316,658.8203 L155,658.8203 L155,641.6875 " fill="#FFFFFF" style="stroke:#000000;stroke-width:1.5;"/><rect fill="none" height="1049.9141" style="stroke:#000000;stroke-width:1.5;" width="762" x="155" y="641.6875"/><text fill="#000000" font-family="sans-serif" font-size="13" font-weight="bold" lengthAdjust="spacing" textLength="126" x="170" y="654.7544">&#21019;&#24314;&#20813;&#25276;&#35746;&#21333;&#21518;&#27969;&#31243;</text><path d="M175,665.8203 L304,665.8203 L304,672.9531 L294,682.9531 L175,682.9531 L175,665.8203 " fill="#FFFFFF" style="stroke:#000000;stroke-width:1.5;"/><rect fill="none" height="75.3984" style="stroke:#000000;stroke-width:1.5;" width="722" x="175" y="665.8203"/><text fill="#000000" font-family="sans-serif" font-size="13" font-weight="bold" lengthAdjust="spacing" textLength="84" x="190" y="678.8872">&#26597;&#35810;&#20813;&#25276;&#35746;&#21333;</text><polygon fill="#181818" points="821,700.0859,831,704.0859,821,708.0859,825,704.0859" style="stroke:#181818;stroke-width:1.0;"/><line style="stroke:#181818;stroke-width:1.0;" x1="225" x2="827" y1="704.0859" y2="704.0859"/><text fill="#000000" font-family="sans-serif" font-size="13" font-weight="bold" lengthAdjust="spacing" textLength="9" x="303.5" y="699.02">1</text><text fill="#000000" font-family="sans-serif" font-size="13" lengthAdjust="spacing" textLength="438" x="316.5" y="699.02">&#21830;&#23478;&#35843;&#29992;alipay.fund.auth.operation.detail.query(&#36164;&#37329;&#25480;&#26435;&#25805;&#20316;&#26597;&#35810;&#25509;&#21475;)</text><polygon fill="#181818" points="231,729.2188,221,733.2188,231,737.2188,227,733.2188" style="stroke:#181818;stroke-width:1.0;"/><line style="stroke:#181818;stroke-width:1.0;" x1="225" x2="837" y1="733.2188" y2="733.2188"/><text fill="#000000" font-family="sans-serif" font-size="13" font-weight="bold" lengthAdjust="spacing" textLength="9" x="444.5" y="728.1528">2</text><text fill="#000000" font-family="sans-serif" font-size="13" lengthAdjust="spacing" textLength="156" x="457.5" y="728.1528">&#36820;&#22238;&#21333;&#31508;&#20813;&#25276;&#35746;&#21333;&#35814;&#32454;&#20449;&#24687;</text><path d="M175,755.2188 L304,755.2188 L304,762.3516 L294,772.3516 L175,772.3516 L175,755.2188 " fill="#FFFFFF" style="stroke:#000000;stroke-width:1.5;"/><rect fill="none" height="140.7969" style="stroke:#000000;stroke-width:1.5;" width="722" x="175" y="755.2188"/><text fill="#000000" font-family="sans-serif" font-size="13" font-weight="bold" lengthAdjust="spacing" textLength="84" x="190" y="768.2856">&#21462;&#28040;&#20813;&#25276;&#35746;&#21333;</text><polygon fill="#181818" points="821,789.4844,831,793.4844,821,797.4844,825,793.4844" style="stroke:#181818;stroke-width:1.0;"/><line style="stroke:#181818;stroke-width:1.0;" x1="225" x2="827" y1="793.4844" y2="793.4844"/><text fill="#000000" font-family="sans-serif" font-size="13" font-weight="bold" lengthAdjust="spacing" textLength="9" x="333.5" y="788.4185">1</text><text fill="#000000" font-family="sans-serif" font-size="13" lengthAdjust="spacing" textLength="378" x="346.5" y="788.4185">&#21830;&#23478;&#35843;&#29992;alipay.fund.auth.operation.cancel(&#36164;&#37329;&#25480;&#26435;&#25764;&#38144;&#25509;&#21475;)</text><path d="M230,806.4844 L230,846.4844 L699,846.4844 L699,816.4844 L689,806.4844 L230,806.4844 " fill="#FEFFDD" style="stroke:#181818;stroke-width:0.5;"/><path d="M689,806.4844 L689,816.4844 L699,816.4844 L689,806.4844 " fill="#FEFFDD" style="stroke:#181818;stroke-width:0.5;"/><text fill="#000000" font-family="sans-serif" font-size="13" lengthAdjust="spacing" textLength="195" x="236" y="823.5513">&#22312;&#21462;&#28040;&#21069;&#65292;&#35831;&#20808;&#12304;&#26597;&#35810;&#20813;&#25276;&#35746;&#21333;&#12305;</text><text fill="#000000" font-family="sans-serif" font-size="13" lengthAdjust="spacing" textLength="448" x="236" y="838.6841">&#12304;&#21019;&#24314;&#20813;&#25276;&#35746;&#21333;&#12305;&#21518;24&#23567;&#26102;&#20869;&#21487;&#21462;&#28040;&#65292;&#36229;&#36807;24&#23567;&#26102;&#19981;&#21487;&#20877;&#21462;&#28040;&#65292;&#38656;&#35201;&#23436;&#32467;&#35746;&#21333;</text><polygon fill="#181818" points="231,884.0156,221,888.0156,231,892.0156,227,888.0156" style="stroke:#181818;stroke-width:1.0;"/><line style="stroke:#181818;stroke-width:1.0;" x1="225" x2="837" y1="888.0156" y2="888.0156"/><text fill="#000000" font-family="sans-serif" font-size="13" font-weight="bold" lengthAdjust="spacing" textLength="9" x="373" y="875.3833">2</text><text fill="#000000" font-family="sans-serif" font-size="13" lengthAdjust="spacing" textLength="299" x="386" y="867.8169">&#26657;&#39564;&#25104;&#21151;&#21518;&#65292;&#24403;&#21069;&#35746;&#21333;&#23436;&#25104;&#21462;&#28040;&#65292;&#32456;&#27490;&#21518;&#32493;&#19994;&#21153;&#22788;&#29702;</text><text fill="#000000" font-family="sans-serif" font-size="13" lengthAdjust="spacing" textLength="208" x="431.5" y="882.9497">&#22914;&#19981;&#25104;&#21151;&#35831;&#21442;&#32771;&#25509;&#21475;&#25991;&#26723;&#38169;&#35823;&#30721;&#25490;&#26597;</text><path d="M165,910.0156 L238,910.0156 L238,917.1484 L228,927.1484 L165,927.1484 L165,910.0156 " fill="#FFFFFF" style="stroke:#000000;stroke-width:1.5;"/><rect fill="none" height="335.5938" style="stroke:#000000;stroke-width:1.5;" width="742" x="165" y="910.0156"/><text fill="#000000" font-family="sans-serif" font-size="13" font-weight="bold" lengthAdjust="spacing" textLength="28" x="180" y="923.0825">&#25187;&#27454;</text><path d="M175,934.1484 L276,934.1484 L276,941.2813 L266,951.2813 L175,951.2813 L175,934.1484 " fill="#FFFFFF" style="stroke:#000000;stroke-width:1.5;"/><rect fill="none" height="125.6641" style="stroke:#000000;stroke-width:1.5;" width="722" x="175" y="934.1484"/><text fill="#000000" font-family="sans-serif" font-size="13" font-weight="bold" lengthAdjust="spacing" textLength="56" x="190" y="947.2153">&#21457;&#36215;&#25187;&#27454;</text><polygon fill="#181818" points="821,968.4141,831,972.4141,821,976.4141,825,972.4141" style="stroke:#181818;stroke-width:1.0;"/><line style="stroke:#181818;stroke-width:1.0;" x1="225" x2="827" y1="972.4141" y2="972.4141"/><text fill="#000000" font-family="sans-serif" font-size="13" font-weight="bold" lengthAdjust="spacing" textLength="9" x="375.5" y="967.3481">1</text><text fill="#000000" font-family="sans-serif" font-size="13" lengthAdjust="spacing" textLength="294" x="388.5" y="967.3481">&#21830;&#23478;&#35843;&#29992;alipay.trade.pay(&#32479;&#19968;&#25910;&#21333;&#20132;&#26131;&#25903;&#20184;&#25509;&#21475;)</text><path d="M230,985.4141 L230,1010.4141 L524,1010.4141 L524,995.4141 L514,985.4141 L230,985.4141 " fill="#FEFFDD" style="stroke:#181818;stroke-width:0.5;"/><path d="M514,985.4141 L514,995.4141 L524,995.4141 L514,985.4141 " fill="#FEFFDD" style="stroke:#181818;stroke-width:0.5;"/><text fill="#000000" font-family="sans-serif" font-size="13" lengthAdjust="spacing" textLength="273" x="236" y="1002.481">&#23545;&#22312;&#21019;&#24314;&#20813;&#25276;&#35746;&#21333;&#26102;&#30340;&#29992;&#25143;&#24050;&#25480;&#26435;&#37329;&#39069;&#21457;&#36215;&#25187;&#27454;</text><polygon fill="#181818" points="231,1047.8125,221,1051.8125,231,1055.8125,227,1051.8125" style="stroke:#181818;stroke-width:1.0;"/><line style="stroke:#181818;stroke-width:1.0;" x1="225" x2="837" y1="1051.8125" y2="1051.8125"/><text fill="#000000" font-family="sans-serif" font-size="13" font-weight="bold" lengthAdjust="spacing" textLength="9" x="373" y="1039.1802">2</text><text fill="#000000" font-family="sans-serif" font-size="13" lengthAdjust="spacing" textLength="299" x="386" y="1031.6138">&#26657;&#39564;&#25104;&#21151;&#21518;&#65292;&#24403;&#21069;&#35746;&#21333;&#23436;&#25104;&#21462;&#28040;&#65292;&#32456;&#27490;&#21518;&#32493;&#19994;&#21153;&#22788;&#29702;</text><text fill="#000000" font-family="sans-serif" font-size="13" lengthAdjust="spacing" textLength="208" x="431.5" y="1046.7466">&#22914;&#19981;&#25104;&#21151;&#35831;&#21442;&#32771;&#25509;&#21475;&#25991;&#26723;&#38169;&#35823;&#30721;&#25490;&#26597;</text><path d="M175,1073.8125 L276,1073.8125 L276,1080.9453 L266,1090.9453 L175,1090.9453 L175,1073.8125 " fill="#FFFFFF" style="stroke:#000000;stroke-width:1.5;"/><rect fill="none" height="75.3984" style="stroke:#000000;stroke-width:1.5;" width="722" x="175" y="1073.8125"/><text fill="#000000" font-family="sans-serif" font-size="13" font-weight="bold" lengthAdjust="spacing" textLength="56" x="190" y="1086.8794">&#26597;&#35810;&#25187;&#27454;</text><polygon fill="#181818" points="821,1108.0781,831,1112.0781,821,1116.0781,825,1112.0781" style="stroke:#181818;stroke-width:1.0;"/><line style="stroke:#181818;stroke-width:1.0;" x1="225" x2="827" y1="1112.0781" y2="1112.0781"/><text fill="#000000" font-family="sans-serif" font-size="13" font-weight="bold" lengthAdjust="spacing" textLength="9" x="382" y="1107.0122">3</text><text fill="#000000" font-family="sans-serif" font-size="13" lengthAdjust="spacing" textLength="281" x="395" y="1107.0122">&#21830;&#23478;&#35843;&#29992;alipay.trade.query(&#32479;&#19968;&#25910;&#21333;&#20132;&#26131;&#26597;&#35810;)</text><polygon fill="#181818" points="231,1137.2109,221,1141.2109,231,1145.2109,227,1141.2109" style="stroke:#181818;stroke-width:1.0;"/><line style="stroke:#181818;stroke-width:1.0;" x1="225" x2="837" y1="1141.2109" y2="1141.2109"/><text fill="#000000" font-family="sans-serif" font-size="13" font-weight="bold" lengthAdjust="spacing" textLength="9" x="438" y="1136.145">4</text><text fill="#000000" font-family="sans-serif" font-size="13" lengthAdjust="spacing" textLength="169" x="451" y="1136.145">&#36820;&#22238;&#24403;&#21069;&#36825;&#31508;&#25187;&#27454;&#20132;&#26131;&#30340;&#20449;&#24687;</text><path d="M175,1163.2109 L276,1163.2109 L276,1170.3438 L266,1180.3438 L175,1180.3438 L175,1163.2109 " fill="#FFFFFF" style="stroke:#000000;stroke-width:1.5;"/><rect fill="none" height="75.3984" style="stroke:#000000;stroke-width:1.5;" width="722" x="175" y="1163.2109"/><text fill="#000000" font-family="sans-serif" font-size="13" font-weight="bold" lengthAdjust="spacing" textLength="56" x="190" y="1176.2778">&#21462;&#28040;&#25187;&#27454;</text><polygon fill="#181818" points="821,1197.4766,831,1201.4766,821,1205.4766,825,1201.4766" style="stroke:#181818;stroke-width:1.0;"/><line style="stroke:#181818;stroke-width:1.0;" x1="225" x2="827" y1="1201.4766" y2="1201.4766"/><text fill="#000000" font-family="sans-serif" font-size="13" font-weight="bold" lengthAdjust="spacing" textLength="9" x="370.5" y="1196.4106">1</text><text fill="#000000" font-family="sans-serif" font-size="13" lengthAdjust="spacing" textLength="304" x="383.5" y="1196.4106">&#21830;&#23478;&#35843;&#29992;alipay.trade.close(&#32479;&#19968;&#25910;&#21333;&#20132;&#26131;&#20851;&#38381;&#25509;&#21475;)</text><polygon fill="#181818" points="231,1226.6094,221,1230.6094,231,1234.6094,227,1230.6094" style="stroke:#181818;stroke-width:1.0;"/><line style="stroke:#181818;stroke-width:1.0;" x1="225" x2="837" y1="1230.6094" y2="1230.6094"/><text fill="#000000" font-family="sans-serif" font-size="13" font-weight="bold" lengthAdjust="spacing" textLength="9" x="373" y="1225.5435">2</text><text fill="#000000" font-family="sans-serif" font-size="13" lengthAdjust="spacing" textLength="299" x="386" y="1225.5435">&#21462;&#28040;&#25187;&#27454;&#25104;&#21151;&#21518;&#65292;&#23558;&#26080;&#27861;&#25805;&#20316;&#24403;&#21069;&#36825;&#31508;&#26410;&#25187;&#27454;&#30340;&#20132;&#26131;</text><path d="M165,1259.6094 L238,1259.6094 L238,1266.7422 L228,1276.7422 L165,1276.7422 L165,1259.6094 " fill="#FFFFFF" style="stroke:#000000;stroke-width:1.5;"/><rect fill="none" height="195.9297" style="stroke:#000000;stroke-width:1.5;" width="742" x="165" y="1259.6094"/><text fill="#000000" font-family="sans-serif" font-size="13" font-weight="bold" lengthAdjust="spacing" textLength="28" x="180" y="1272.6763">&#36864;&#27454;</text><path d="M175,1283.7422 L276,1283.7422 L276,1290.875 L266,1300.875 L175,1300.875 L175,1283.7422 " fill="#FFFFFF" style="stroke:#000000;stroke-width:1.5;"/><rect fill="none" height="75.3984" style="stroke:#000000;stroke-width:1.5;" width="722" x="175" y="1283.7422"/><text fill="#000000" font-family="sans-serif" font-size="13" font-weight="bold" lengthAdjust="spacing" textLength="56" x="190" y="1296.8091">&#30003;&#35831;&#36864;&#27454;</text><polygon fill="#181818" points="821,1318.0078,831,1322.0078,821,1326.0078,825,1322.0078" style="stroke:#181818;stroke-width:1.0;"/><line style="stroke:#181818;stroke-width:1.0;" x1="225" x2="827" y1="1322.0078" y2="1322.0078"/><text fill="#000000" font-family="sans-serif" font-size="13" font-weight="bold" lengthAdjust="spacing" textLength="9" x="366.5" y="1316.9419">1</text><text fill="#000000" font-family="sans-serif" font-size="13" lengthAdjust="spacing" textLength="312" x="379.5" y="1316.9419">&#21830;&#23478;&#35843;&#29992;alipay.trade.refund(&#32479;&#19968;&#25910;&#21333;&#20132;&#26131;&#36864;&#27454;&#25509;&#21475;)</text><polygon fill="#181818" points="231,1347.1406,221,1351.1406,231,1355.1406,227,1351.1406" style="stroke:#181818;stroke-width:1.0;"/><line style="stroke:#181818;stroke-width:1.0;" x1="225" x2="837" y1="1351.1406" y2="1351.1406"/><text fill="#000000" font-family="sans-serif" font-size="13" font-weight="bold" lengthAdjust="spacing" textLength="9" x="414" y="1346.0747">2</text><text fill="#000000" font-family="sans-serif" font-size="13" lengthAdjust="spacing" textLength="217" x="427" y="1346.0747">&#25509;&#21475;&#36820;&#22238;fund_change=Y&#20026;&#36864;&#27454;&#25104;&#21151;</text><path d="M175,1373.1406 L304,1373.1406 L304,1380.2734 L294,1390.2734 L175,1390.2734 L175,1373.1406 " fill="#FFFFFF" style="stroke:#000000;stroke-width:1.5;"/><rect fill="none" height="75.3984" style="stroke:#000000;stroke-width:1.5;" width="722" x="175" y="1373.1406"/><text fill="#000000" font-family="sans-serif" font-size="13" font-weight="bold" lengthAdjust="spacing" textLength="84" x="190" y="1386.2075">&#26597;&#35810;&#20132;&#26131;&#36864;&#27454;</text><polygon fill="#181818" points="821,1407.4063,831,1411.4063,821,1415.4063,825,1411.4063" style="stroke:#181818;stroke-width:1.0;"/><line style="stroke:#181818;stroke-width:1.0;" x1="225" x2="827" y1="1411.4063" y2="1411.4063"/><text fill="#000000" font-family="sans-serif" font-size="13" font-weight="bold" lengthAdjust="spacing" textLength="9" x="321" y="1406.3403">3</text><text fill="#000000" font-family="sans-serif" font-size="13" lengthAdjust="spacing" textLength="403" x="334" y="1406.3403">&#21830;&#23478;&#35843;&#29992;alipay.trade.fastpay.refund.query(&#32479;&#19968;&#25910;&#21333;&#20132;&#26131;&#36864;&#27454;&#26597;&#35810;)</text><polygon fill="#181818" points="231,1436.5391,221,1440.5391,231,1444.5391,227,1440.5391" style="stroke:#181818;stroke-width:1.0;"/><line style="stroke:#181818;stroke-width:1.0;" x1="225" x2="837" y1="1440.5391" y2="1440.5391"/><text fill="#000000" font-family="sans-serif" font-size="13" font-weight="bold" lengthAdjust="spacing" textLength="9" x="319.5" y="1435.4731">4</text><text fill="#000000" font-family="sans-serif" font-size="13" lengthAdjust="spacing" textLength="406" x="332.5" y="1435.4731">&#20165;&#25509;&#21475;&#36820;&#22238;&#30340;refund_status&#20540;&#20026;REFUND_SUCCESS&#26102;&#34920;&#31034;&#36864;&#27454;&#25104;&#21151;</text><path d="M175,1469.5391 L332,1469.5391 L332,1476.6719 L322,1486.6719 L175,1486.6719 L175,1469.5391 " fill="#FFFFFF" style="stroke:#000000;stroke-width:1.5;"/><rect fill="none" height="110.5313" style="stroke:#000000;stroke-width:1.5;" width="722" x="175" y="1469.5391"/><text fill="#000000" font-family="sans-serif" font-size="13" font-weight="bold" lengthAdjust="spacing" textLength="112" x="190" y="1482.606">&#21516;&#27493;&#26381;&#21153;&#35746;&#21333;&#20449;&#24687;</text><polygon fill="#181818" points="821,1503.8047,831,1507.8047,821,1511.8047,825,1507.8047" style="stroke:#181818;stroke-width:1.0;"/><line style="stroke:#181818;stroke-width:1.0;" x1="225" x2="827" y1="1507.8047" y2="1507.8047"/><text fill="#000000" font-family="sans-serif" font-size="13" font-weight="bold" lengthAdjust="spacing" textLength="9" x="335.5" y="1502.7388">1</text><text fill="#000000" font-family="sans-serif" font-size="13" lengthAdjust="spacing" textLength="374" x="348.5" y="1502.7388">&#21830;&#23478;&#35843;&#29992;alipay.trade.orderinfo.sync(&#25903;&#20184;&#23453;&#35746;&#21333;&#20449;&#24687;&#21516;&#27493;&#25509;&#21475;)</text><path d="M230,1520.8047 L230,1545.8047 L602,1545.8047 L602,1530.8047 L592,1520.8047 L230,1520.8047 " fill="#FEFFDD" style="stroke:#181818;stroke-width:0.5;"/><path d="M592,1520.8047 L592,1530.8047 L602,1530.8047 L592,1520.8047 " fill="#FEFFDD" style="stroke:#181818;stroke-width:0.5;"/><text fill="#000000" font-family="sans-serif" font-size="13" lengthAdjust="spacing" textLength="351" x="236" y="1537.8716">&#35843;&#29992;&#35813;&#25509;&#21475;&#65292;&#23558;&#20250;&#25512;&#36827;&#35746;&#21333;&#29366;&#24577;&#65292;&#21521;&#29992;&#25143;&#36827;&#34892;&#26356;&#24378;&#26377;&#21147;&#30340;&#25552;&#31034;</text><polygon fill="#181818" points="231,1568.0703,221,1572.0703,231,1576.0703,227,1572.0703" style="stroke:#181818;stroke-width:1.0;"/><line style="stroke:#181818;stroke-width:1.0;" x1="225" x2="837" y1="1572.0703" y2="1572.0703"/><text fill="#000000" font-family="sans-serif" font-size="13" font-weight="bold" lengthAdjust="spacing" textLength="9" x="470.5" y="1567.0044">2</text><text fill="#000000" font-family="sans-serif" font-size="13" lengthAdjust="spacing" textLength="104" x="483.5" y="1567.0044">&#36820;&#22238;&#20449;&#24687;&#21516;&#27493;&#32467;&#26524;</text><path d="M175,1594.0703 L304,1594.0703 L304,1601.2031 L294,1611.2031 L175,1611.2031 L175,1594.0703 " fill="#FFFFFF" style="stroke:#000000;stroke-width:1.5;"/><rect fill="none" height="90.5313" style="stroke:#000000;stroke-width:1.5;" width="722" x="175" y="1594.0703"/><text fill="#000000" font-family="sans-serif" font-size="13" font-weight="bold" lengthAdjust="spacing" textLength="84" x="190" y="1607.1372">&#23436;&#32467;&#20813;&#25276;&#35746;&#21333;</text><polygon fill="#181818" points="821,1628.3359,831,1632.3359,821,1636.3359,825,1632.3359" style="stroke:#181818;stroke-width:1.0;"/><line style="stroke:#181818;stroke-width:1.0;" x1="225" x2="827" y1="1632.3359" y2="1632.3359"/><text fill="#000000" font-family="sans-serif" font-size="13" font-weight="bold" lengthAdjust="spacing" textLength="9" x="339.5" y="1627.27">1</text><text fill="#000000" font-family="sans-serif" font-size="13" lengthAdjust="spacing" textLength="366" x="352.5" y="1627.27">&#21830;&#23478;&#35843;&#29992;alipay.fund.auth.order.unfreeze(&#36164;&#37329;&#25480;&#26435;&#35299;&#20923;&#25509;&#21475;)</text><polygon fill="#181818" points="231,1672.6016,221,1676.6016,231,1680.6016,227,1676.6016" style="stroke:#181818;stroke-width:1.0;"/><line style="stroke:#181818;stroke-width:1.0;" x1="225" x2="837" y1="1676.6016" y2="1676.6016"/><text fill="#000000" font-family="sans-serif" font-size="13" font-weight="bold" lengthAdjust="spacing" textLength="9" x="373" y="1663.9692">2</text><text fill="#000000" font-family="sans-serif" font-size="13" lengthAdjust="spacing" textLength="299" x="386" y="1656.4028">&#26657;&#39564;&#25104;&#21151;&#21518;&#65292;&#20851;&#38381;&#20813;&#25276;&#25480;&#26435;&#35746;&#21333;&#65292;&#32456;&#27490;&#21518;&#32493;&#19994;&#21153;&#22788;&#29702;</text><text fill="#000000" font-family="sans-serif" font-size="13" lengthAdjust="spacing" textLength="208" x="431.5" y="1671.5356">&#22914;&#19981;&#25104;&#21151;&#35831;&#21442;&#32771;&#25509;&#21475;&#25991;&#26723;&#38169;&#35823;&#30721;&#25490;&#26597;</text></g></svg>